<?xml version="1.0" standalone="no"?>
<!DOCTYPE svg PUBLIC "-//W3C//DTD SVG 20010904//EN"
 "http://www.w3.org/TR/2001/REC-SVG-20010904/DTD/svg10.dtd">
<svg version="1.0" xmlns="http://www.w3.org/2000/svg"
 width="139.000000pt" height="139.000000pt" viewBox="0 0 139.000000 139.000000"
 preserveAspectRatio="xMidYMid meet">
<metadata>
Created by potrace 1.11, written by Peter Selinger 2001-2013
</metadata>
<g transform="translate(0.000000,139.000000) scale(0.100000,-0.100000)"
fill="#000000" stroke="none">
<path d="M780 1369 c-14 -6 -74 -24 -134 -40 -219 -60 -340 -126 -431 -236
-66 -80 -95 -130 -132 -227 -25 -65 -27 -83 -27 -211 0 -133 1 -144 31 -222
75 -196 221 -336 418 -400 102 -32 254 -36 355 -9 213 58 387 224 453 431 30
95 31 292 3 375 -45 133 -107 225 -200 300 -35 27 -67 50 -70 50 -3 0 -6 -101
-6 -225 l0 -224 -42 -11 c-24 -6 -52 -14 -63 -17 -11 -3 -72 -27 -135 -53 -63
-27 -175 -65 -248 -86 -108 -30 -148 -46 -207 -85 -79 -52 -91 -69 -73 -102 6
-12 12 -38 12 -57 1 -29 7 -38 41 -57 22 -12 68 -32 103 -44 58 -19 71 -20
195 -10 110 8 151 17 237 47 58 20 117 42 132 50 46 24 48 20 48 -80 l0 -94
-37 -22 c-20 -11 -70 -33 -112 -48 -66 -23 -92 -26 -191 -26 -99 0 -126 4
-195 28 -152 52 -277 158 -348 294 -55 105 -71 172 -71 292 1 121 30 227 86
315 l32 50 13 -90 c17 -118 46 -201 91 -266 27 -39 45 -55 64 -57 29 -3 35 11
53 113 9 50 51 185 78 249 l21 49 23 -88 c13 -48 38 -118 56 -154 26 -55 36
-66 57 -66 21 0 28 11 61 98 21 54 50 121 65 150 47 87 84 166 84 178 0 6 18
29 40 51 22 22 40 45 40 51 0 6 17 29 38 50 35 36 36 39 19 52 -11 7 -25 11
-33 8 -8 -3 -37 4 -64 16 -53 23 -91 26 -130 10z m220 -49 c0 -5 -8 -14 -18
-19 -11 -6 -38 -35 -61 -65 -23 -31 -58 -64 -79 -74 -43 -22 -259 -85 -273
-80 -6 2 32 31 83 64 51 34 114 78 140 97 72 55 135 84 186 86 12 1 22 -3 22
-9z m-430 -100 c0 -11 -7 -20 -15 -20 -8 0 -15 9 -15 20 0 11 7 20 15 20 8 0
15 -9 15 -20z m-53 -16 c1 -5 -2 -16 -7 -24 -12 -20 -33 0 -24 24 7 17 25 17
31 0z m-68 -41 c0 -25 -1 -25 -8 -8 -5 11 -7 23 -4 28 8 14 13 7 12 -20z m-45
-9 c8 -20 -1 -34 -20 -34 -8 0 -14 8 -14 18 0 33 23 44 34 16z m-56 -36 c-5
-32 -28 -35 -28 -4 0 17 5 26 16 26 10 0 14 -7 12 -22z m434 -115 c-33 -70
-71 -157 -83 -193 -35 -103 -43 -106 -79 -27 -31 69 -86 264 -77 273 3 3 59
18 124 34 65 16 129 33 143 38 14 5 27 8 29 6 2 -2 -24 -61 -57 -131z m-272
100 c0 -20 -3 -24 -11 -16 -7 7 -9 19 -6 27 10 24 17 19 17 -11z m-220 -14 c0
-10 -4 -19 -10 -19 -5 0 -10 12 -10 26 0 14 4 23 10 19 6 -3 10 -15 10 -26z
m180 -4 c0 -19 -20 -29 -32 -17 -8 8 -7 16 2 26 14 17 30 12 30 -9z m-69 -48
c-8 -8 -11 -3 -11 19 1 25 2 27 11 11 8 -14 8 -22 0 -30z m-51 -4 c-1 -24 -2
-26 -11 -10 -5 9 -7 22 -4 27 10 17 15 11 15 -17z m-44 -14 c10 -17 -13 -36
-27 -22 -12 12 -4 33 11 33 5 0 12 -5 16 -11z m151 -36 c-3 -10 -5 -4 -5 12 0
17 2 24 5 18 2 -7 2 -21 0 -30z m-47 -10 c0 -20 -3 -24 -11 -16 -7 7 -9 19 -6
27 10 24 17 19 17 -11z m-40 -23 c0 -11 -6 -20 -13 -20 -19 0 -27 10 -20 26 8
21 33 17 33 -6z m-60 -26 c0 -14 -4 -23 -10 -19 -5 3 -10 15 -10 26 0 10 5 19
10 19 6 0 10 -12 10 -26z m110 -33 c0 -23 -16 -36 -25 -21 -9 14 1 40 15 40 5
0 10 -9 10 -19z m-47 -14 c3 -8 1 -20 -4 -28 -11 -19 -32 2 -23 24 7 20 20 22
27 4z m-53 -37 c0 -11 -4 -20 -10 -20 -5 0 -10 9 -10 20 0 11 5 20 10 20 6 0
10 -9 10 -20z m933 -80 l-6 -60 42 0 41 0 0 -49 c0 -45 -3 -51 -35 -70 -23
-13 -35 -28 -35 -42 0 -18 -4 -21 -29 -16 -22 5 -34 0 -51 -18 -32 -34 -21
-49 45 -64 43 -10 55 -16 53 -29 -2 -10 -11 -17 -21 -16 -9 0 -50 1 -89 2
l-73 2 -1 29 c-1 39 -25 121 -34 121 -5 0 -2 -21 6 -47 18 -60 18 -118 -1
-136 -7 -8 -78 -40 -156 -71 -114 -45 -160 -58 -233 -66 -153 -16 -197 -13
-283 20 -83 32 -104 49 -96 80 7 26 33 26 33 0 0 -37 46 -55 146 -56 50 0 97
-4 105 -8 8 -4 3 2 -11 13 -23 20 -71 36 -211 75 -31 9 -62 23 -70 32 -12 14
-8 21 31 55 63 54 113 77 248 111 64 16 155 45 202 64 127 54 225 84 294 91
55 6 67 11 124 60 35 29 65 53 67 53 3 0 2 -27 -2 -60z m-886 3 c-3 -10 -5 -4
-5 12 0 17 2 24 5 18 2 -7 2 -21 0 -30z m-37 -8 c0 -26 -14 -33 -25 -15 -9 14
1 40 15 40 5 0 10 -11 10 -25z"/>
<path d="M1040 683 c-43 -7 -149 -44 -155 -54 -9 -13 2 -11 88 16 43 14 96 25
118 25 24 0 38 4 34 10 -6 10 -37 11 -85 3z"/>
<path d="M1016 493 c7 -21 13 -55 14 -76 0 -26 4 -36 11 -31 13 8 6 78 -12
118 -18 40 -28 31 -13 -11z"/>
<path d="M954 490 c4 -14 10 -49 13 -77 3 -29 9 -53 14 -53 13 0 11 61 -2 101
-14 41 -35 67 -25 29z"/>
<path d="M765 343 c17 -2 36 -12 43 -21 6 -8 12 -11 12 -6 0 19 -24 34 -54 33
l-31 -2 30 -4z"/>
<path d="M724 299 c-8 -14 11 -33 25 -25 6 4 11 11 11 16 0 13 -29 20 -36 9z"/>
</g>
</svg>
